{
  "accessors": [
    {
      "bufferView": 1,
      "componentType": 5126,
      "count": 65532,
      "max": [
        68.495475769042969,
        53.72674560546875,
        129.99855041503906
      ],
      "min": [
        3.774613618850708,
        3.5646123886108398,
        64.163566589355469
      ],
      "type": "VEC3"
    },
    {
      "bufferView": 1,
      "byteOffset": 786384,
      "componentType": 5126,
      "count": 65532,
      "max": [
        0.99996477365493774,
        0.99994224309921265,
        0.99999231100082397
      ],
      "min": [
        -0.9999924898147583,
        -0.99999028444290161,
        -0.99994677305221558
      ],
      "type": "VEC3"
    },
    {
      "bufferView": 0,
      "componentType": 5125,
      "count": 351627,
      "max": [
        65531
      ],
      "min": [
        0
      ],
      "type": "SCALAR"
    },
    {
      "bufferView": 1,
      "byteOffset": 1572768,
      "componentType": 5126,
      "count": 65534,
      "max": [
        80.327133178710938,
        56.992141723632812,
        129.98753356933594
      ],
      "min": [
        4.419069766998291,
        0.11065764725208282,
        51.289821624755859
      ],
      "type": "VEC3"
    },
    {
      "bufferView": 1,
      "byteOffset": 2359176,
      "componentType": 5126,
      "count": 65534,
      "max": [
        0.99998587369918823,
        0.99996930360794067,
        0.99969583749771118
      ],
      "min": [
        -0.99948668479919434,
        -0.99995213747024536,
        -0.99988579750061035
      ],
      "type": "VEC3"
    },
    {
      "bufferView": 0,
      "byteOffset": 1406508,
      "componentType": 5125,
      "count": 327453,
      "max": [
        65533
      ],
      "min": [
        0
      ],
      "type": "SCALAR"
    },
    {
      "bufferView": 1,
      "byteOffset": 3145584,
      "componentType": 5126,
      "count": 65532,
      "max": [
        107.44064331054688,
        59.884796142578125,
        108.87281799316406
      ],
      "min": [
        3.1080245971679688,
        2.9417891502380371,
        9.0811777114868164
      ],
      "type": "VEC3"
    },
    {
      "bufferView": 1,
      "byteOffset": 3931968,
      "componentType": 5126,
      "count": 65532,
      "max": [
        0.99995166063308716,
        0.99999469518661499,
        0.99992018938064575
      ],
      "min": [
        -0.99994432926177979,
        -0.99999326467514038,
        -0.99995344877243042
      ],
      "type": "VEC3"
    },
    {
      "bufferView": 0,
      "byteOffset": 2716320,
      "componentType": 5125,
      "count": 339759,
      "max": [
        65531
      ],
      "min": [
        0
      ],
      "type": "SCALAR"
    },
    {
      "bufferView": 1,
      "byteOffset": 4718352,
      "componentType": 5126,
      "count": 65532,
      "max": [
        107.39625549316406,
        59.874393463134766,
        106.59354400634766
      ],
      "min": [
        3.3219594955444336,
        -2.4769017272774363e-06,
        0.0086669577285647392
      ],
      "type": "VEC3"
    },
    {
      "bufferView": 1,
      "byteOffset": 5504736,
      "componentType": 5126,
      "count": 65532,
      "max": [
        0.99993473291397095,
        0.999991774559021,
        0.99999690055847168
      ],
      "min": [
        -0.99997621774673462,
        -0.99997466802597046,
        -0.99994194507598877
      ],
      "type": "VEC3"
    },
    {
      "bufferView": 0,
      "byteOffset": 4075356,
      "componentType": 5125,
      "count": 321639,
      "max": [
        65531
      ],
      "min": [
        0
      ],
      "type": "SCALAR"
    },
    {
      "bufferView": 1,
      "byteOffset": 6291120,
      "componentType": 5126,
      "count": 65532,
      "max": [
        107.44064331054688,
        55.125179290771484,
        100.88577270507812
      ],
      "min": [
        6.9356198310852051,
        0.005490665789693594,
        0.0084380768239498138
      ],
      "type": "VEC3"
    },
    {
      "bufferView": 1,
      "byteOffset": 7077504,
      "componentType": 5126,
      "count": 65532,
      "max": [
        0.99997484683990479,
        0.99996912479400635,
        0.99999988079071045
      ],
      "min": [
        -0.99997663497924805,
        -0.99999833106994629,
        -1
      ],
      "type": "VEC3"
    },
    {
      "bufferView": 0,
      "byteOffset": 5361912,
      "componentType": 5125,
      "count": 341283,
      "max": [
        65531
      ],
      "min": [
        0
      ],
      "type": "SCALAR"
    },
    {
      "bufferView": 1,
      "byteOffset": 7863888,
      "componentType": 5126,
      "count": 65532,
      "max": [
        99.028282165527344,
        59.913009643554688,
        79.904541015625
      ],
      "min": [
        -3.296535169283743e-06,
        0.82316786050796509,
        0
      ],
      "type": "VEC3"
    },
    {
      "bufferView": 1,
      "byteOffset": 8650272,
      "componentType": 5126,
      "count": 65532,
      "max": [
        0.99951523542404175,
        0.99999827146530151,
        0.99999183416366577
      ],
      "min": [
        -0.99999964237213135,
        -0.99999701976776123,
        -1
      ],
      "type": "VEC3"
    },
    {
      "bufferView": 0,
      "byteOffset": 6727044,
      "componentType": 5125,
      "count": 328242,
      "max": [
        65531
      ],
      "min": [
        0
      ],
      "type": "SCALAR"
    },
    {
      "bufferView": 1,
      "byteOffset": 9436656,
      "componentType": 5126,
      "count": 65532,
      "max": [
        94.580406188964844,
        59.501007080078125,
        98.970428466796875
      ],
      "min": [
        0.38093090057373047,
        0.87563502788543701,
        0.39065971970558167
      ],
      "type": "VEC3"
    },
    {
      "bufferView": 1,
      "byteOffset": 10223040,
      "componentType": 5126,
      "count": 65532,
      "max": [
        0.99998366832733154,
        0.99997025728225708,
        0.99999934434890747
      ],
      "min": [
        -0.99999910593032837,
        -0.99999833106994629,
        -0.99982208013534546
      ],
      "type": "VEC3"
    },
    {
      "bufferView": 0,
      "byteOffset": 8040012,
      "componentType": 5125,
      "count": 304143,
      "max": [
        65531
      ],
      "min": [
        0
      ],
      "type": "SCALAR"
    },
    {
      "bufferView": 1,
      "byteOffset": 11009424,
      "componentType": 5126,
      "count": 65532,
      "max": [
        107.43434143066406,
        59.913009643554688,
        129.75386047363281
      ],
      "min": [
        0.11145791411399841,
        0.24027292430400848,
        0.0084685944020748138
      ],
      "type": "VEC3"
    },
    {
      "bufferView": 1,
      "byteOffset": 11795808,
      "componentType": 5126,
      "count": 65532,
      "max": [
        1,
        0.99998116493225098,
        1
      ],
      "min": [
        -0.99999713897705078,
        -1,
        -1
      ],
      "type": "VEC3"
    },
    {
      "bufferView": 0,
      "byteOffset": 9256584,
      "componentType": 5125,
      "count": 220875,
      "max": [
        65531
      ],
      "min": [
        0
      ],
      "type": "SCALAR"
    },
    {
      "bufferView": 1,
      "byteOffset": 12582192,
      "componentType": 5126,
      "count": 17621,
      "max": [
        88.459197998046875,
        48.687156677246094,
        1.2960604429244995
      ],
      "min": [
        7.1435885429382324,
        22.129594802856445,
        0.0086692282930016518
      ],
      "type": "VEC3"
    },
    {
      "bufferView": 1,
      "byteOffset": 12793644,
      "componentType": 5126,
      "count": 17621,
      "max": [
        1,
        1,
        1
      ],
      "min": [
        -0.99729156494140625,
        -1,
        -1
      ],
      "type": "VEC3"
    },
    {
      "bufferView": 0,
      "byteOffset": 10140084,
      "componentType": 5125,
      "count": 59937,
      "max": [
        17620
      ],
      "min": [
        0
      ],
      "type": "SCALAR"
    }
  ],
  "asset": {
    "extras": {
      "author": "Ancient World 3D (https://sketchfab.com/ancientworld3d)",
      "license": "CC-BY-4.0 (http://creativecommons.org/licenses/by/4.0/)",
      "source": "https://sketchfab.com/3d-models/34057-mnpm-terme-boxer-89545d25b75a417686e0df57d1ea26cf",
      "title": "34057 MNPM Terme Boxer"
    },
    "generator": "Sketchfab-8.2.1",
    "version": "2.0"
  },
  "bufferViews": [
    {
      "buffer": 0,
      "byteLength": 10379832,
      "byteOffset": 0,
      "name": "floatBufferViews",
      "target": 34963
    },
    {
      "buffer": 0,
      "byteLength": 13005096,
      "byteOffset": 10379832,
      "byteStride": 12,
      "name": "floatBufferViews",
      "target": 34962
    }
  ],
  "buffers": [
    {
      "byteLength": 23384928,
      "uri": "scene.bin"
    }
  ],
  "materials": [
    {
      "doubleSided": true,
      "name": "Scene_-_Root",
      "pbrMetallicRoughness": {
        "baseColorFactor": [
          1,
          1,
          1,
          1
        ],
        "metallicFactor": 0,
        "roughnessFactor": 0.59999999999999998
      }
    }
  ],
  "meshes": [
    {
      "primitives": [
        {
          "attributes": {
            "NORMAL": 1,
            "POSITION": 0
          },
          "indices": 2,
          "material": 0,
          "mode": 4
        }
      ]
    },
    {
      "primitives": [
        {
          "attributes": {
            "NORMAL": 4,
            "POSITION": 3
          },
          "indices": 5,
          "material": 0,
          "mode": 4
        }
      ]
    },
    {
      "primitives": [
        {
          "attributes": {
            "NORMAL": 7,
            "POSITION": 6
          },
          "indices": 8,
          "material": 0,
          "mode": 4
        }
      ]
    },
    {
      "primitives": [
        {
          "attributes": {
            "NORMAL": 10,
            "POSITION": 9
          },
          "indices": 11,
          "material": 0,
          "mode": 4
        }
      ]
    },
    {
      "primitives": [
        {
          "attributes": {
            "NORMAL": 13,
            "POSITION": 12
          },
          "indices": 14,
          "material": 0,
          "mode": 4
        }
      ]
    },
    {
      "primitives": [
        {
          "attributes": {
            "NORMAL": 16,
            "POSITION": 15
          },
          "indices": 17,
          "material": 0,
          "mode": 4
        }
      ]
    },
    {
      "primitives": [
        {
          "attributes": {
            "NORMAL": 19,
            "POSITION": 18
          },
          "indices": 20,
          "material": 0,
          "mode": 4
        }
      ]
    },
    {
      "primitives": [
        {
          "attributes": {
            "NORMAL": 22,
            "POSITION": 21
          },
          "indices": 23,
          "material": 0,
          "mode": 4
        }
      ]
    },
    {
      "primitives": [
        {
          "attributes": {
            "NORMAL": 25,
            "POSITION": 24
          },
          "indices": 26,
          "material": 0,
          "mode": 4
        }
      ]
    }
  ],
  "nodes": [
    {
      "children": [
        1
      ],
      "name": "RootNode (gltf orientation matrix)",
      "rotation": [
        -0.70710678118654746,
        -0,
        -0,
        0.70710678118654757
      ]
    },
    {
      "children": [
        2
      ],
      "name": "RootNode (model correction matrix)"
    },
    {
      "children": [
        3,
        4,
        5,
        6,
        7,
        8,
        9,
        10,
        11
      ],
      "name": "34057 sculpture.stl.cleaner.materialmerger.gles"
    },
    {
      "mesh": 0,
      "name": ""
    },
    {
      "mesh": 1,
      "name": ""
    },
    {
      "mesh": 2,
      "name": ""
    },
    {
      "mesh": 3,
      "name": ""
    },
    {
      "mesh": 4,
      "name": ""
    },
    {
      "mesh": 5,
      "name": ""
    },
    {
      "mesh": 6,
      "name": ""
    },
    {
      "mesh": 7,
      "name": ""
    },
    {
      "mesh": 8,
      "name": ""
    }
  ],
  "scene": 0,
  "scenes": [
    {
      "name": "OSG_Scene",
      "nodes": [
        0
      ]
    }
  ]
}

